<svg id="svg" version="1.1" xmlns="http://www.w3.org/2000/svg" xmlns:xlink="http://www.w3.org/1999/xlink" width="400" height="400" viewBox="0, 0, 400,400"><g id="svgg"><path id="path0" d="M186.800 48.668 C 177.509 49.595,168.192 51.230,160.718 53.247 C 157.758 54.045,157.643 54.120,157.821 55.139 C 158.443 58.705,161.946 80.537,163.608 91.200 C 164.688 98.130,166.568 110.010,167.787 117.600 C 171.016 137.710,174.511 159.618,176.785 174.000 C 177.880 180.930,180.227 195.690,182.000 206.800 C 183.773 217.910,186.202 233.210,187.397 240.800 C 189.542 254.426,192.390 272.123,193.126 276.400 C 193.369 277.811,193.522 237.342,193.552 163.500 L 193.600 48.400 190.900 48.464 C 189.415 48.499,187.570 48.591,186.800 48.668 M205.646 163.445 C 205.672 226.780,205.757 278.330,205.837 278.000 C 206.027 277.206,208.215 263.494,216.592 210.600 C 218.937 195.791,221.811 177.771,226.382 149.200 C 227.913 139.630,229.536 129.370,229.990 126.400 C 230.443 123.430,231.621 116.050,232.606 110.000 C 233.592 103.950,235.472 92.160,236.785 83.800 C 238.098 75.440,239.702 65.360,240.350 61.400 C 240.997 57.440,241.458 54.129,241.373 54.043 C 241.146 53.811,232.394 51.725,227.800 50.809 C 223.068 49.865,215.879 48.967,209.900 48.574 L 205.600 48.291 205.646 163.445 M141.000 59.963 C 135.473 62.355,126.804 66.711,122.834 69.091 C 116.993 72.592,112.400 75.759,112.400 76.286 C 112.400 76.578,119.889 99.358,129.042 126.908 C 158.075 214.295,181.523 284.968,181.803 285.930 C 181.951 286.442,182.139 286.795,182.219 286.715 C 182.381 286.552,182.186 285.257,178.795 264.000 C 177.479 255.750,175.146 241.080,173.611 231.400 C 172.076 221.720,169.819 207.500,168.595 199.800 C 164.339 173.012,160.837 150.905,158.425 135.600 C 157.090 127.130,155.192 115.250,154.206 109.200 C 153.220 103.150,151.864 94.600,151.192 90.200 C 149.629 79.955,146.449 60.072,146.186 58.900 C 145.932 57.766,146.203 57.711,141.000 59.963 M253.415 58.926 C 253.172 60.061,250.490 76.720,248.220 91.200 C 245.097 111.111,240.853 137.829,239.005 149.200 C 238.022 155.250,236.579 164.340,235.797 169.400 C 235.016 174.460,233.574 183.550,232.593 189.600 C 231.612 195.650,229.810 206.900,228.590 214.600 C 222.239 254.655,221.087 261.898,219.416 272.282 C 218.417 278.487,217.610 283.887,217.621 284.282 C 217.658 285.514,286.842 78.125,286.959 76.432 C 287.064 74.910,266.915 63.517,256.701 59.324 C 253.602 58.052,253.602 58.052,253.415 58.926 M99.593 86.029 C 92.613 92.177,79.244 106.621,79.685 107.539 C 79.883 107.953,86.560 121.146,102.794 153.200 C 111.094 169.590,122.987 193.080,129.221 205.400 C 135.456 217.720,145.116 236.800,150.688 247.800 C 156.261 258.800,162.924 271.977,165.495 277.082 C 168.066 282.187,170.238 286.295,170.322 286.211 C 170.406 286.127,163.265 264.401,154.454 237.929 C 145.643 211.458,130.454 165.783,120.700 136.429 L 102.966 83.058 99.593 86.029 M296.217 83.664 C 295.824 84.801,253.384 212.514,241.416 248.573 C 234.485 269.459,228.862 286.596,228.922 286.655 C 228.982 286.715,231.223 282.407,233.903 277.082 C 236.583 271.757,243.204 258.670,248.618 248.000 C 254.031 237.330,267.199 211.320,277.880 190.200 C 288.561 169.080,302.273 141.990,308.350 130.000 C 314.428 118.010,319.452 107.927,319.515 107.594 C 319.896 105.596,296.827 81.901,296.217 83.664 " stroke="none" fill="#112537" fill-rule="evenodd"></path><path id="path2" d="M180.677 4.257 C 180.587 4.346,178.526 4.621,174.700 5.054 C 173.435 5.197,172.400 5.451,172.400 5.619 C 172.400 5.787,171.652 5.824,170.739 5.701 C 169.542 5.541,169.157 5.607,169.362 5.939 C 169.561 6.260,169.123 6.400,167.924 6.400 L 166.200 6.399 166.340 10.232 C 166.525 15.312,165.525 18.613,162.947 21.436 C 161.960 22.516,160.867 23.814,160.517 24.320 C 159.999 25.071,158.088 26.394,157.200 26.617 C 157.090 26.644,156.527 26.864,155.950 27.105 C 150.996 29.169,142.943 28.541,140.068 25.867 C 139.555 25.390,139.046 25.057,138.937 25.127 C 138.768 25.235,136.977 23.262,134.063 19.757 C 133.677 19.293,133.431 18.708,133.514 18.457 C 133.598 18.206,133.486 18.000,133.265 18.000 C 133.044 18.000,132.745 17.460,132.600 16.800 C 132.455 16.140,132.177 15.600,131.983 15.600 C 131.245 15.600,127.394 17.285,127.110 17.732 C 126.903 18.057,126.807 18.017,126.793 17.600 C 126.777 17.077,126.712 17.080,126.287 17.621 C 125.909 18.102,121.888 20.013,120.800 20.228 C 120.690 20.249,120.093 20.477,119.474 20.734 C 118.855 20.990,118.090 21.200,117.774 21.200 C 117.045 21.200,117.048 21.745,117.784 23.169 C 118.105 23.790,118.255 24.411,118.117 24.549 C 117.979 24.687,118.051 24.800,118.277 24.800 C 119.090 24.800,119.736 30.493,119.243 33.319 C 118.642 36.773,115.938 42.600,114.936 42.600 C 114.806 42.600,114.073 43.191,113.307 43.914 C 111.693 45.436,109.782 46.456,107.100 47.228 C 106.055 47.529,105.200 47.915,105.200 48.087 C 105.200 48.259,105.009 48.400,104.776 48.400 C 104.543 48.400,104.436 48.265,104.538 48.100 C 104.640 47.935,103.751 47.800,102.562 47.800 C 101.373 47.800,100.400 47.935,100.400 48.100 C 100.400 48.265,100.209 48.400,99.976 48.400 C 99.743 48.400,99.664 48.220,99.800 48.000 C 99.946 47.763,99.489 47.600,98.677 47.600 C 97.216 47.600,91.600 45.020,91.600 44.349 C 91.600 44.131,91.436 44.054,91.236 44.177 C 90.881 44.397,90.001 43.444,88.014 40.687 C 87.098 39.417,85.600 39.025,85.600 40.057 C 85.600 40.256,85.150 40.591,84.600 40.800 C 84.050 41.009,83.600 41.333,83.600 41.520 C 83.600 41.707,82.597 42.567,81.371 43.430 C 80.146 44.294,78.931 45.180,78.671 45.400 C 78.412 45.620,77.441 46.316,76.512 46.946 C 74.138 48.558,74.108 49.058,76.193 52.168 C 77.187 53.650,78.000 55.309,78.000 55.855 C 78.000 56.503,78.160 56.748,78.462 56.562 C 78.762 56.376,78.814 56.453,78.611 56.783 C 78.431 57.074,78.518 57.426,78.815 57.610 C 79.549 58.063,79.542 65.141,78.808 65.595 C 78.520 65.773,78.394 66.207,78.529 66.560 C 78.664 66.912,78.601 67.200,78.387 67.200 C 78.174 67.200,78.000 67.452,78.000 67.760 C 78.000 68.068,77.370 69.256,76.600 70.400 C 75.830 71.544,75.200 72.607,75.200 72.762 C 75.200 73.865,68.626 78.000,66.873 78.000 C 66.424 78.000,65.787 78.270,65.457 78.600 C 65.019 79.038,63.960 79.198,61.529 79.194 C 59.067 79.189,58.356 79.077,58.800 78.763 C 59.269 78.430,59.160 78.376,58.300 78.513 C 57.695 78.610,57.200 78.534,57.200 78.345 C 57.200 78.155,56.964 78.000,56.675 78.000 C 55.820 78.000,52.238 76.149,50.878 75.004 C 49.737 74.044,49.539 73.998,48.794 74.519 C 47.867 75.168,45.628 78.010,45.611 78.559 C 45.597 79.010,42.967 82.351,41.843 83.345 C 41.379 83.755,40.995 84.205,40.990 84.345 C 40.984 84.485,40.633 85.119,40.209 85.753 L 39.438 86.906 40.619 87.851 C 41.269 88.371,41.980 88.804,42.200 88.814 C 43.328 88.863,47.586 96.193,47.595 98.100 C 47.598 98.705,47.735 99.200,47.900 99.200 C 48.065 99.200,48.200 100.550,48.200 102.200 C 48.200 103.850,48.065 105.200,47.900 105.200 C 47.735 105.200,47.600 105.544,47.600 105.964 C 47.600 110.156,41.127 117.370,36.200 118.669 C 33.913 119.272,25.615 119.069,25.191 118.400 C 24.983 118.070,24.809 117.937,24.806 118.105 C 24.803 118.273,24.142 118.136,23.339 117.800 C 22.535 117.464,21.841 117.237,21.797 117.295 C 21.753 117.353,20.888 119.560,19.875 122.200 C 18.862 124.840,18.022 126.730,18.008 126.400 C 17.993 126.070,17.474 127.240,16.855 129.000 L 15.728 132.200 16.878 132.515 C 17.535 132.695,17.916 133.012,17.767 133.254 C 17.610 133.508,17.802 133.620,18.248 133.534 C 18.657 133.455,19.263 133.627,19.595 133.916 C 19.928 134.204,21.280 135.209,22.600 136.148 C 27.410 139.571,30.082 148.596,27.884 154.000 C 27.661 154.550,27.411 155.352,27.329 155.783 C 27.247 156.213,27.049 156.663,26.890 156.783 C 26.730 156.902,26.551 157.238,26.490 157.529 C 26.270 158.593,25.121 159.944,22.986 161.647 C 21.784 162.607,20.800 163.538,20.800 163.718 C 20.800 164.941,16.116 166.192,11.521 166.196 C 6.333 166.200,6.418 166.152,6.405 169.124 C 6.402 169.852,6.240 170.348,6.043 170.227 C 5.847 170.106,5.615 170.622,5.527 171.375 C 5.439 172.128,5.510 172.656,5.684 172.548 C 5.858 172.441,6.000 172.633,6.000 172.976 C 6.000 173.319,5.850 173.600,5.666 173.600 C 5.330 173.600,4.263 181.996,4.561 182.294 C 4.649 182.382,5.682 182.543,6.857 182.652 C 10.543 182.995,17.200 186.363,17.200 187.886 C 17.200 188.153,17.543 188.555,17.962 188.780 C 20.958 190.383,22.955 199.423,21.427 204.459 C 20.620 207.117,18.000 211.808,18.000 210.594 C 18.000 210.421,17.491 210.982,16.869 211.840 C 15.017 214.395,9.793 216.786,6.046 216.796 L 4.291 216.800 4.552 218.700 C 4.695 219.745,4.925 221.810,5.063 223.289 C 5.200 224.768,5.467 225.882,5.656 225.765 C 5.845 225.648,6.000 225.844,6.000 226.200 C 6.000 226.556,5.846 226.752,5.658 226.636 C 5.470 226.519,5.401 226.871,5.506 227.418 C 5.610 227.965,5.854 228.510,6.048 228.630 C 6.241 228.749,6.403 229.602,6.406 230.524 C 6.415 232.923,6.558 232.998,11.200 233.025 C 13.800 233.040,15.857 233.254,16.600 233.586 C 17.260 233.881,18.022 234.169,18.294 234.225 C 19.099 234.392,21.600 236.037,21.600 236.400 C 21.600 236.584,22.249 237.136,23.043 237.626 C 28.328 240.893,30.176 251.485,26.642 258.259 C 24.797 261.795,19.874 265.991,17.553 266.006 C 16.837 266.011,16.741 266.101,17.165 266.370 C 17.599 266.645,17.506 266.759,16.765 266.864 C 15.632 267.024,15.644 267.723,16.823 270.296 C 17.250 271.228,17.600 272.173,17.600 272.396 C 17.600 272.618,17.749 272.800,17.931 272.800 C 18.113 272.800,18.846 274.375,19.558 276.300 C 21.610 281.841,21.679 282.000,22.030 282.000 C 22.385 282.000,23.992 281.386,25.560 280.650 C 26.657 280.135,33.106 280.044,35.200 280.514 C 40.229 281.642,46.428 287.519,46.965 291.667 C 46.984 291.813,47.135 292.068,47.300 292.233 C 47.465 292.398,47.600 293.054,47.600 293.690 C 47.600 294.327,47.735 294.764,47.900 294.663 C 48.065 294.562,48.200 295.632,48.200 297.040 C 48.200 298.448,48.065 299.600,47.900 299.600 C 47.735 299.600,47.600 300.048,47.600 300.596 C 47.600 302.067,46.219 305.438,44.929 307.117 C 44.308 307.926,43.615 308.950,43.388 309.394 C 43.162 309.837,42.780 310.200,42.541 310.200 C 41.943 310.200,39.600 312.031,39.600 312.498 C 39.600 312.706,40.005 313.444,40.499 314.138 C 40.994 314.832,41.399 315.545,41.399 315.723 C 41.400 315.900,41.768 316.350,42.218 316.723 C 43.306 317.623,46.014 321.053,45.803 321.264 C 45.368 321.698,49.240 325.368,49.738 324.993 C 51.844 323.405,54.375 321.918,55.294 321.728 C 55.895 321.604,56.301 321.364,56.196 321.194 C 55.405 319.913,66.623 319.821,67.577 321.101 C 67.700 321.265,68.655 321.846,69.700 322.392 C 70.745 322.937,71.600 323.552,71.600 323.758 C 71.600 323.965,71.712 324.022,71.848 323.885 C 72.188 323.545,76.000 327.201,76.000 327.866 C 76.000 328.160,76.166 328.400,76.368 328.400 C 76.571 328.400,76.855 328.938,76.999 329.595 C 77.143 330.253,77.428 330.894,77.631 331.019 C 77.834 331.145,78.000 331.607,78.000 332.047 C 78.000 332.487,78.163 332.746,78.363 332.623 C 78.562 332.500,78.631 332.759,78.516 333.199 C 78.399 333.647,78.504 334.000,78.753 334.000 C 79.049 334.000,79.200 335.216,79.200 337.600 C 79.200 339.885,79.044 341.200,78.773 341.200 C 78.520 341.200,78.456 341.546,78.616 342.050 C 78.797 342.622,78.741 342.811,78.443 342.626 C 78.175 342.461,78.000 342.670,78.000 343.153 C 78.000 343.593,77.820 344.064,77.600 344.200 C 77.380 344.336,77.199 344.752,77.198 345.124 C 77.197 345.496,76.477 346.749,75.598 347.909 L 73.999 350.017 76.076 351.998 C 77.219 353.088,78.232 353.901,78.328 353.806 C 78.497 353.636,82.995 356.886,83.805 357.762 C 84.027 358.003,84.828 358.637,85.584 359.170 L 86.958 360.141 87.779 358.977 C 89.509 356.523,92.056 354.378,94.800 353.063 C 95.790 352.588,96.654 352.084,96.719 351.942 C 96.785 351.801,97.190 351.777,97.619 351.889 C 98.049 352.002,98.400 351.893,98.400 351.647 C 98.400 351.349,99.675 351.200,102.224 351.200 C 104.671 351.200,105.958 351.344,105.800 351.600 C 105.664 351.820,105.833 352.000,106.176 352.000 C 106.519 352.000,106.889 352.001,106.999 352.003 C 108.364 352.022,115.600 356.439,115.600 357.253 C 115.600 357.422,116.143 358.364,116.806 359.347 C 119.515 363.361,120.408 371.510,118.477 374.594 C 118.209 375.022,118.159 375.182,117.773 376.836 C 117.544 377.817,117.687 377.927,120.466 378.914 C 122.080 379.487,124.120 380.268,125.000 380.649 C 125.880 381.030,126.852 381.388,127.160 381.444 C 127.468 381.501,127.828 381.697,127.960 381.882 C 128.196 382.211,129.815 383.007,130.600 383.180 C 130.820 383.228,131.231 383.459,131.512 383.693 C 131.902 384.016,132.139 383.816,132.500 382.859 C 132.761 382.167,133.116 381.600,133.288 381.600 C 133.459 381.600,133.600 381.399,133.600 381.154 C 133.600 380.331,137.234 375.230,138.424 374.383 C 139.071 373.922,139.600 373.642,139.600 373.761 C 139.600 373.879,140.251 373.534,141.047 372.994 C 145.163 370.201,152.224 370.233,157.884 373.070 C 159.751 374.006,162.181 376.000,161.454 376.000 C 161.297 376.000,161.918 376.757,162.834 377.681 C 165.677 380.554,167.064 384.986,166.616 389.771 L 166.341 392.700 167.671 392.939 C 168.402 393.070,170.228 393.299,171.729 393.447 C 173.545 393.626,174.282 393.838,173.929 394.078 C 173.591 394.310,174.158 394.397,175.500 394.320 C 176.655 394.254,177.645 394.310,177.700 394.445 C 177.755 394.580,178.735 394.777,179.877 394.884 C 182.233 395.104,182.506 394.779,182.985 391.173 C 183.745 385.445,189.107 379.641,195.140 378.016 C 200.302 376.626,208.342 378.367,210.720 381.389 C 211.157 381.945,211.669 382.400,211.858 382.400 C 213.061 382.400,216.229 388.253,216.619 391.197 C 217.093 394.776,217.369 395.104,219.723 394.884 C 220.865 394.777,221.845 394.580,221.900 394.445 C 221.955 394.310,222.945 394.254,224.100 394.320 C 225.442 394.397,226.009 394.310,225.671 394.078 C 225.318 393.838,226.055 393.626,227.871 393.447 C 229.372 393.299,231.198 393.070,231.929 392.939 L 233.259 392.700 232.984 389.771 C 232.558 385.226,233.966 380.435,236.485 377.858 C 237.208 377.118,237.998 376.172,238.239 375.756 C 239.498 373.587,244.894 371.282,249.549 370.925 C 256.217 370.415,263.153 374.493,265.579 380.350 C 265.864 381.037,266.255 381.600,266.449 381.600 C 266.642 381.600,266.803 381.825,266.806 382.100 C 266.826 383.724,270.538 383.579,271.640 381.910 C 271.772 381.710,272.132 381.496,272.440 381.435 C 272.748 381.373,273.450 381.134,274.000 380.902 C 277.005 379.638,279.548 378.663,280.700 378.334 C 282.235 377.895,282.262 377.678,281.147 374.800 C 277.918 366.463,283.479 354.051,291.094 352.596 C 291.482 352.522,291.845 352.425,291.900 352.381 C 292.058 352.253,292.744 352.104,293.424 352.050 C 293.767 352.023,293.936 351.820,293.800 351.600 C 293.642 351.344,294.894 351.202,297.276 351.206 C 299.828 351.210,300.811 351.334,300.400 351.600 C 299.915 351.914,299.972 351.989,300.700 351.994 C 301.960 352.002,301.832 351.976,303.515 352.570 C 306.855 353.748,310.403 356.531,311.586 358.900 C 312.260 360.250,312.578 360.264,314.213 359.017 C 314.921 358.477,315.613 358.117,315.751 358.217 C 315.888 358.318,315.914 358.284,315.809 358.142 C 315.588 357.844,320.887 353.613,321.225 353.818 C 321.541 354.009,325.200 350.551,325.200 350.062 C 325.200 349.842,324.746 349.122,324.192 348.463 C 323.638 347.805,322.802 346.396,322.335 345.333 C 321.868 344.270,321.342 343.306,321.165 343.190 C 320.036 342.451,319.982 333.226,321.103 332.430 C 321.281 332.304,321.869 331.255,322.408 330.100 C 322.948 328.945,323.537 328.000,323.718 328.000 C 323.899 328.000,323.945 327.835,323.821 327.634 C 323.542 327.183,327.143 323.517,327.592 323.795 C 327.770 323.905,328.020 323.725,328.147 323.394 C 328.274 323.063,328.518 322.823,328.689 322.860 C 329.248 322.982,332.403 321.337,332.132 321.065 C 331.986 320.919,332.032 320.799,332.233 320.797 C 332.435 320.795,333.724 320.612,335.097 320.389 C 337.679 319.970,342.752 320.476,343.198 321.197 C 343.318 321.391,344.276 321.918,345.326 322.368 C 346.377 322.819,347.853 323.657,348.606 324.232 C 349.973 325.274,349.978 325.275,350.959 324.504 C 352.136 323.578,354.182 321.200,353.802 321.200 C 353.403 321.200,355.918 317.977,357.355 316.647 C 358.040 316.013,358.330 315.622,358.000 315.777 C 357.509 316.008,357.513 315.963,358.025 315.530 C 360.241 313.652,360.091 310.885,357.770 310.813 C 357.148 310.794,355.543 308.990,355.863 308.670 C 356.012 308.522,355.931 308.400,355.684 308.400 C 355.318 308.400,353.095 305.126,352.968 304.400 C 352.949 304.290,352.723 303.693,352.466 303.074 C 352.210 302.455,352.000 301.499,352.000 300.950 C 352.000 300.387,351.826 300.060,351.600 300.200 C 351.346 300.357,351.200 299.263,351.200 297.200 C 351.200 295.137,351.346 294.043,351.600 294.200 C 351.820 294.336,352.014 294.212,352.031 293.924 C 352.047 293.636,352.127 293.130,352.207 292.800 C 352.288 292.470,352.440 291.813,352.546 291.339 C 352.881 289.845,356.400 283.984,356.400 284.921 C 356.400 285.053,356.895 284.702,357.500 284.140 C 362.259 279.722,368.440 278.977,377.039 281.787 C 377.783 282.030,378.917 280.537,379.004 279.200 C 379.061 278.313,381.830 271.695,382.080 271.849 C 382.256 271.958,382.400 271.851,382.400 271.611 C 382.400 271.371,382.696 270.505,383.059 269.687 C 384.032 267.490,384.023 267.221,382.968 266.956 C 382.438 266.823,382.105 266.554,382.226 266.357 C 382.348 266.161,382.209 266.000,381.918 266.000 C 380.355 266.000,374.850 261.939,373.820 260.026 C 372.200 257.018,371.602 255.311,371.228 252.621 C 370.837 249.807,370.882 249.214,371.825 244.800 C 372.263 242.752,375.245 237.887,375.928 238.105 C 376.091 238.157,376.986 237.447,377.916 236.527 C 380.533 233.941,383.281 233.034,388.498 233.038 C 393.422 233.042,393.007 233.414,393.433 228.600 C 393.627 226.411,393.815 225.653,394.030 226.200 C 394.272 226.817,394.362 226.633,394.423 225.400 C 394.466 224.520,394.543 223.440,394.593 223.000 C 394.643 222.560,394.814 220.985,394.973 219.500 L 395.264 216.800 393.632 216.800 C 392.734 216.800,391.955 216.804,391.900 216.808 C 388.717 217.067,381.903 212.190,379.483 207.921 C 376.506 202.670,377.175 193.259,380.799 189.401 C 381.213 188.961,381.596 188.420,381.649 188.200 C 381.833 187.449,388.000 183.192,388.000 183.816 C 388.000 183.971,388.270 183.874,388.600 183.600 C 388.930 183.326,389.200 183.220,389.200 183.365 C 389.200 183.510,389.534 183.449,389.943 183.231 C 390.551 182.905,391.967 182.674,394.881 182.424 C 395.175 182.399,394.891 178.639,394.516 177.600 C 394.397 177.270,394.318 176.100,394.340 175.000 C 394.368 173.621,394.279 173.245,394.054 173.787 C 393.820 174.353,393.649 173.789,393.448 171.787 C 393.294 170.254,393.068 168.370,392.948 167.600 L 392.728 166.200 388.025 166.200 C 384.627 166.200,383.139 166.048,382.661 165.651 C 382.298 165.349,382.000 165.219,382.000 165.361 C 382.000 165.780,379.487 164.368,378.400 163.338 C 375.939 161.007,375.494 160.635,375.799 161.162 C 376.684 162.693,374.986 160.880,373.826 159.056 C 370.404 153.674,369.983 145.772,372.876 141.200 C 373.363 140.430,373.771 139.680,373.781 139.534 C 373.837 138.746,375.817 136.735,377.867 135.384 C 379.150 134.538,380.260 133.700,380.334 133.521 C 380.408 133.342,380.633 133.297,380.834 133.421 C 381.035 133.545,381.200 133.465,381.200 133.242 C 381.200 133.019,381.821 132.720,382.579 132.578 L 383.958 132.319 383.120 130.059 C 382.659 128.817,382.154 127.749,381.999 127.686 C 381.844 127.624,380.837 125.236,379.762 122.380 C 378.234 118.322,377.675 117.243,377.203 117.440 C 372.748 119.298,366.866 120.042,364.600 119.035 C 364.160 118.840,363.450 118.613,363.023 118.531 C 362.224 118.377,360.938 117.782,359.227 116.774 C 357.473 115.740,354.425 112.244,353.320 110.000 C 352.725 108.790,352.049 107.668,351.819 107.506 C 351.533 107.306,351.542 107.210,351.845 107.206 C 352.102 107.203,352.209 106.780,352.099 106.205 C 351.994 105.657,351.749 105.308,351.554 105.428 C 351.358 105.549,351.200 104.016,351.200 102.000 C 351.200 99.362,351.327 98.431,351.658 98.636 C 351.974 98.831,352.053 98.591,351.913 97.859 C 351.802 97.277,351.846 96.800,352.012 96.800 C 352.178 96.800,352.433 96.322,352.580 95.739 C 352.726 95.155,353.376 93.907,354.023 92.967 C 354.670 92.026,355.200 91.095,355.200 90.898 C 355.200 90.444,356.927 88.805,357.426 88.786 C 357.632 88.778,358.320 88.346,358.956 87.826 L 360.112 86.881 359.229 85.640 C 358.743 84.958,358.493 84.395,358.673 84.389 C 358.853 84.383,358.442 83.888,357.760 83.289 C 356.136 81.862,353.547 78.586,353.825 78.309 C 353.944 78.189,353.144 77.154,352.046 76.009 L 350.049 73.926 348.197 75.340 C 347.179 76.118,345.458 77.049,344.373 77.409 C 343.288 77.769,342.400 78.230,342.400 78.432 C 342.400 78.634,342.209 78.800,341.976 78.800 C 341.743 78.800,341.663 78.622,341.797 78.405 C 341.937 78.178,341.777 78.111,341.421 78.247 C 341.079 78.378,340.800 78.646,340.800 78.843 C 340.800 79.039,339.360 79.200,337.600 79.200 C 335.511 79.200,334.400 79.045,334.400 78.753 C 334.400 78.504,334.047 78.399,333.600 78.516 C 333.160 78.631,332.800 78.581,332.800 78.406 C 332.800 78.230,332.327 77.968,331.749 77.823 C 331.170 77.678,330.048 77.118,329.256 76.579 C 328.463 76.041,327.623 75.600,327.388 75.600 C 327.154 75.600,326.259 74.880,325.400 74.000 C 324.541 73.120,323.980 72.400,324.154 72.400 C 324.329 72.400,324.005 71.846,323.435 71.169 C 322.866 70.492,322.291 69.503,322.157 68.972 C 322.024 68.440,321.771 68.095,321.595 68.203 C 321.419 68.312,321.376 68.013,321.500 67.538 C 321.646 66.981,321.574 66.769,321.297 66.940 C 320.797 67.249,320.000 63.975,320.000 61.611 C 320.000 59.598,320.839 55.977,321.246 56.229 C 321.420 56.336,321.756 55.706,321.992 54.828 C 322.229 53.950,323.055 52.403,323.829 51.389 C 324.982 49.878,325.587 47.080,324.533 48.134 C 324.426 48.241,323.812 47.778,323.169 47.105 C 322.526 46.432,321.997 46.043,321.994 46.241 C 321.991 46.438,321.856 46.419,321.694 46.199 C 321.532 45.978,320.680 45.302,319.800 44.695 C 317.735 43.273,316.029 41.854,316.800 42.200 C 317.130 42.348,316.953 42.106,316.406 41.662 C 315.859 41.218,315.340 40.927,315.252 41.014 C 315.165 41.102,314.643 40.820,314.092 40.387 C 312.671 39.269,312.225 39.388,310.854 41.253 C 308.506 44.445,303.104 47.600,299.985 47.600 C 299.333 47.600,298.800 47.780,298.800 48.000 C 298.800 48.220,298.080 48.400,297.200 48.400 C 296.320 48.400,295.600 48.240,295.600 48.044 C 295.600 47.848,295.015 47.598,294.300 47.488 C 291.511 47.061,288.400 46.023,288.400 45.520 C 288.400 45.344,288.175 45.195,287.900 45.189 C 286.183 45.152,281.846 39.535,280.751 35.928 C 279.800 32.799,279.828 26.571,280.799 25.402 C 281.073 25.071,281.184 24.800,281.044 24.800 C 280.904 24.800,281.064 24.142,281.400 23.339 C 282.151 21.542,282.458 21.810,277.302 19.760 C 274.936 18.819,273.180 18.032,273.400 18.010 C 273.620 17.989,272.857 17.632,271.703 17.217 C 270.550 16.802,269.065 16.192,268.403 15.862 C 267.243 15.283,267.191 15.296,266.957 16.228 C 266.824 16.759,266.537 17.084,266.319 16.950 C 266.096 16.812,265.989 17.032,266.073 17.453 C 266.156 17.864,266.080 18.380,265.905 18.600 C 264.863 19.909,263.072 22.381,262.354 23.500 C 259.773 27.527,249.774 29.590,243.902 27.306 C 241.328 26.305,238.400 24.570,238.400 24.045 C 238.400 23.855,237.603 22.869,236.630 21.852 C 233.883 18.986,233.012 16.351,233.010 10.900 L 233.008 6.400 231.680 6.400 C 230.777 6.400,230.444 6.252,230.639 5.937 C 230.848 5.599,230.423 5.543,229.063 5.729 C 228.038 5.870,227.200 5.841,227.200 5.664 C 227.200 5.359,220.150 4.393,217.956 4.398 C 216.976 4.400,216.898 4.544,216.694 6.700 C 216.574 7.965,216.251 9.540,215.977 10.200 C 215.702 10.860,215.432 11.619,215.376 11.886 C 214.974 13.817,209.881 18.933,207.090 20.209 C 203.246 21.966,199.645 22.193,194.251 21.017 C 188.495 19.762,182.400 11.950,182.400 5.826 C 182.400 4.362,181.443 3.490,180.677 4.257 M218.776 36.980 C 310.428 48.564,374.117 130.689,361.982 221.640 C 349.665 313.954,261.867 377.642,170.152 360.791 C 78.978 344.040,19.623 254.402,39.845 164.000 C 55.642 93.384,115.326 41.989,188.200 36.251 C 192.964 35.875,214.009 36.377,218.776 36.980 M69.516 122.106 C 16.579 210.757,66.201 325.184,167.387 347.793 C 175.777 349.667,190.400 351.460,190.400 350.614 C 190.400 350.348,161.390 292.828,145.001 260.600 C 141.868 254.440,130.475 231.940,119.682 210.600 C 108.889 189.260,95.812 163.430,90.621 153.200 C 85.430 142.970,79.260 130.775,76.909 126.100 C 74.558 121.425,72.537 117.603,72.417 117.606 C 72.298 117.609,70.992 119.634,69.516 122.106 M324.982 121.249 C 323.950 123.312,320.811 129.500,318.008 135.000 C 309.516 151.659,298.229 173.942,278.600 212.800 C 268.321 233.150,256.622 256.280,252.602 264.200 C 248.582 272.120,241.787 285.530,237.500 294.000 C 233.214 302.470,224.975 318.744,219.191 330.164 L 208.674 350.928 212.837 350.656 C 234.221 349.257,259.365 340.982,278.800 328.947 C 341.822 289.920,367.688 212.599,340.669 144.000 C 337.421 135.753,329.369 120.129,327.194 117.849 C 327.009 117.656,326.017 119.182,324.982 121.249 " stroke="none" fill="#f37210" fill-rule="evenodd"></path></g></svg>